<?xml version="1.0" encoding="iso-8859-1"?>
<!-- Uploaded to: SVG Repo, www.svgrepo.com, Generator: SVG Repo Mixer Tools -->
<svg version="1.1" id="Layer_1" xmlns="http://www.w3.org/2000/svg" xmlns:xlink="http://www.w3.org/1999/xlink" 
	 viewBox="0 0 512 512" xml:space="preserve">
<rect y="114.087" style="fill:#FF4F2A;" width="512" height="33.391"/>
<g>
	<rect y="47.304" style="fill:#FF832F;" width="512" height="33.391"/>
	<path style="fill:#FF832F;" d="M345.043,230.957c-73.766,0-133.565,59.799-133.565,133.565l133.565,33.391l133.565-33.391
		C478.609,290.756,418.809,230.957,345.043,230.957z"/>
</g>
<g>
	<path style="fill:#FF4F2A;" d="M361.739,231.994c-5.469-0.682-11.041-1.037-16.696-1.037c-5.654,0-11.226,0.355-16.696,1.037v60.18
		h33.391V231.994z"/>
	<path style="fill:#FF4F2A;" d="M450.552,282.623c-6.855-8.819-14.791-16.756-23.611-23.611l-42.546,42.546l23.611,23.611
		L450.552,282.623z"/>
</g>
<path style="fill:#FFD485;" d="M166.957,230.957c-73.766,0-133.565,59.799-133.565,133.565l133.565,33.391l133.565-33.391
	C300.522,290.756,240.722,230.957,166.957,230.957z"/>
<g>
	<path style="fill:#FFB833;" d="M183.652,231.994c-5.469-0.682-11.041-1.037-16.696-1.037s-11.226,0.355-16.696,1.037v60.18h33.391
		V231.994z"/>
	<path style="fill:#FFB833;" d="M61.448,282.623l42.546,42.546l23.611-23.611l-42.546-42.546
		C76.239,265.868,68.303,273.804,61.448,282.623z"/>
	<path style="fill:#FFB833;" d="M272.465,282.623c-6.855-8.819-14.791-16.756-23.611-23.611l-42.546,42.546l23.611,23.611
		L272.465,282.623z"/>
</g>
<polygon style="fill:#FF832F;" points="0,364.522 0,464.696 256,464.696 278.261,414.609 256,364.522 "/>
<rect x="256" y="364.522" style="fill:#FF4F2A;" width="256" height="100.174"/>
</svg>